<?xml version="1.0" encoding="UTF-8"?>
<svg version="1.1" xmlns="http://www.w3.org/2000/svg" width="225" height="225">
<path d="M0 0 C74.25 0 148.5 0 225 0 C225 74.25 225 148.5 225 225 C150.75 225 76.5 225 0 225 C0 150.75 0 76.5 0 0 Z " fill="#FF6601" transform="translate(0,0)"/>
<path d="M0 0 C1.02996094 0.25652344 2.05992187 0.51304688 3.12109375 0.77734375 C18.54088855 5.00916023 32.50425389 14.21854821 41 28 C46.78363209 38.27428873 49.35411543 46.9060937 49.3125 58.625 C49.32861328 59.54023437 49.34472656 60.45546875 49.36132812 61.3984375 C49.36515024 66.68824922 48.99293109 70.44646913 46 75 C41.18600457 79.34433734 38.20609051 80.15293543 31.88818359 80.20532227 C31.15637375 80.21522186 30.4245639 80.22512146 29.670578 80.23532104 C27.24656432 80.26696199 24.82253102 80.29170366 22.3984375 80.31640625 C20.71977218 80.33697354 19.04111207 80.35796995 17.36245728 80.37937927 C12.94018769 80.43462318 8.51787119 80.48402221 4.09552002 80.53222656 C-0.41552922 80.58242467 -4.92651018 80.63811955 -9.4375 80.69335938 C-18.29160836 80.8009693 -27.14577596 80.90240797 -36 81 C-36.01728149 82.91039063 -36.01728149 82.91039063 -36.03491211 84.859375 C-36.04139267 85.57577148 -36.04787323 86.29216797 -36.05455017 87.03027344 C-35.91747639 91.97980654 -33.29297826 95.58289582 -30.046875 99.140625 C-20.87762155 107.79691322 -11.73444797 110.36975769 0.6796875 110.203125 C9.4775061 109.66490551 16.68527428 105.86195639 24.29223633 101.69335938 C28.35668477 99.5331626 31.27651369 98.41551105 36 99 C39.8967366 100.910165 41.67812801 102.47046866 43.9375 106.1875 C45.48285661 111.73260312 45.41244979 115.9985442 42.9375 121.2578125 C33.55172929 136.56301815 16.90321242 144.82585708 0 149 C-0.64018066 149.17515137 -1.28036133 149.35030273 -1.93994141 149.53076172 C-24.14532751 155.17398045 -46.63662925 150.4317196 -66 139 C-69.2411311 136.88315095 -72.13983135 134.60469728 -75 132 C-75.75667969 131.32324219 -76.51335937 130.64648438 -77.29296875 129.94921875 C-90.41736639 117.57227425 -98.67873769 100.30135494 -99.46875 82.23046875 C-99.50283758 79.88303687 -99.5127091 77.53514496 -99.5 75.1875 C-99.49427979 73.95572021 -99.48855957 72.72394043 -99.48266602 71.45483398 C-99.29844248 62.06191466 -98.14902243 54.5285461 -94 46 C-93.46890625 44.86820313 -92.9378125 43.73640625 -92.390625 42.5703125 C-88.7474656 35.33412892 -84.37431566 29.04878157 -79 23 C-78.43539062 22.36449219 -77.87078125 21.72898437 -77.2890625 21.07421875 C-66.43902046 9.58743715 -52.08968927 2.94965021 -37 -1 C-35.88818359 -1.29390625 -35.88818359 -1.29390625 -34.75390625 -1.59375 C-23.62783632 -3.23504259 -10.84935347 -2.93452374 0 0 Z " fill="#FFFEFD" transform="translate(137,37)"/>
<path d="M0 0 C4.83778975 2.11038518 7.33893331 4.55110088 9.86328125 9.296875 C11.21080126 13.33943503 11.29923111 17.06739653 10.86328125 21.296875 C9.1363908 24.58619014 8.42120115 25.1109017 4.86328125 26.296875 C0.70082503 26.5560468 -3.4670554 26.52823963 -7.63671875 26.546875 C-8.79042969 26.5675 -9.94414063 26.588125 -11.1328125 26.609375 C-12.23753906 26.61453125 -13.34226562 26.6196875 -14.48046875 26.625 C-15.49302734 26.6343457 -16.50558594 26.64369141 -17.54882812 26.65332031 C-20.13671875 26.296875 -20.13671875 26.296875 -21.96313477 24.91381836 C-24.42052532 21.5280689 -23.64308796 17.25950845 -23.13671875 13.296875 C-21.50435 7.10475621 -17.91379509 3.61014822 -12.5 0.3671875 C-8.06793568 -1.64006146 -4.69489187 -1.54493699 0 0 Z " fill="#FF6604" transform="translate(122.13671875,62.703125)"/>
<path d="M0 0 C0 3 0 3 -2.5 5.6875 C-3.325 6.450625 -4.15 7.21375 -5 8 C-5.66 7.67 -6.32 7.34 -7 7 C-4.78071806 4.09197539 -3.07030857 2.04687238 0 0 Z " fill="#FF6E1B" transform="translate(108,64)"/>
</svg>
